<?xml version="1.0" encoding="UTF-8"?>
<svg xmlns="http://www.w3.org/2000/svg" xmlns:xlink="http://www.w3.org/1999/xlink" width="32px" height="32px" viewBox="0 0 32 32" version="1.1">
<g id="surface1">
<path style=" stroke:none;fill-rule:nonzero;fill:rgb(0%,45.490196%,100%);fill-opacity:1;" d="M 20.394531 28 L 7.449219 28 C 6.898438 28 6.449219 27.550781 6.449219 27 L 6.449219 25.785156 C 6.449219 25.234375 6.898438 24.785156 7.449219 24.785156 C 8.003906 24.785156 8.449219 25.234375 8.449219 25.785156 L 8.449219 26 L 19.394531 26 L 19.394531 10.15625 L 8.449219 10.15625 L 8.449219 21.125 C 8.449219 21.675781 8.003906 22.125 7.449219 22.125 C 6.898438 22.125 6.449219 21.675781 6.449219 21.125 L 6.449219 9.15625 C 6.449219 8.601562 6.898438 8.15625 7.449219 8.15625 L 20.394531 8.15625 C 20.949219 8.15625 21.394531 8.601562 21.394531 9.15625 L 21.394531 27 C 21.394531 27.550781 20.949219 28 20.394531 28 Z M 20.394531 28 "/>
<path style=" stroke:none;fill-rule:nonzero;fill:rgb(100%,70.196078%,0%);fill-opacity:1;" d="M 24.550781 23.84375 L 23.25 23.84375 C 22.699219 23.84375 22.25 23.398438 22.25 22.84375 C 22.25 22.292969 22.699219 21.84375 23.25 21.84375 L 23.550781 21.84375 L 23.550781 6 L 12.605469 6 L 12.605469 6.25 C 12.605469 6.800781 12.15625 7.25 11.605469 7.25 C 11.050781 7.25 10.605469 6.800781 10.605469 6.25 L 10.605469 5 C 10.605469 4.449219 11.050781 4 11.605469 4 L 24.550781 4 C 25.101562 4 25.550781 4.449219 25.550781 5 L 25.550781 22.84375 C 25.550781 23.398438 25.101562 23.84375 24.550781 23.84375 Z M 24.550781 23.84375 "/>
</g>
</svg>
